<svg xmlns="http://www.w3.org/2000/svg" version="1.1" xmlns:xlink="http://www.w3.org/1999/xlink" xmlns:svgjs="http://svgjs.dev/svgjs" width="128" height="128" viewBox="0 0 128 128"><g transform="matrix(0.8046875,0,0,0.8046875,12.41184074821259,12.814873242367177)"><svg viewBox="0 0 98 98" data-background-color="#003366" preserveAspectRatio="xMidYMid meet" height="127" width="128" xmlns="http://www.w3.org/2000/svg" xmlns:xlink="http://www.w3.org/1999/xlink"><g id="tight-bounds" transform="matrix(1,0,0,1,0.08387967645792571,0.08387967645792571)"><svg viewBox="0 0 97.83224064708415 97.83224064708415" height="97.83224064708415" width="97.83224064708415"><g><svg></svg></g><g><svg viewBox="0 0 97.83224064708415 97.83224064708415" height="97.83224064708415" width="97.83224064708415"><g><path d="M0 48.916c0-27.016 21.9-48.916 48.916-48.916 27.016 0 48.916 21.9 48.916 48.916 0 27.016-21.9 48.916-48.916 48.916-27.016 0-48.916-21.9-48.916-48.916zM48.916 93.244c24.481 0 44.328-19.846 44.328-44.328 0-24.481-19.846-44.328-44.328-44.327-24.481 0-44.328 19.846-44.327 44.327 0 24.481 19.846 44.328 44.327 44.328z" data-fill-palette-color="tertiary" fill="#ffffff" stroke="transparent"></path><ellipse rx="46.95947551060039" ry="46.95947551060039" cx="48.916120323542074" cy="48.916120323542074" fill="#ffffff" stroke="transparent" stroke-width="0" fill-opacity="1" data-fill-palette-color="tertiary"></ellipse></g><g transform="matrix(1,0,0,1,27.224170481662835,23.47539391502934)"><svg viewBox="0 0 43.38389968375848 50.88145281702547" height="50.88145281702547" width="43.38389968375848"><g><svg viewBox="0 0 43.38389968375848 50.88145281702547" height="50.88145281702547" width="43.38389968375848"><g><svg viewBox="0 0 43.38389968375848 50.88145281702547" height="50.88145281702547" width="43.38389968375848"><g id="textblocktransform"><svg viewBox="0 0 43.38389968375848 50.88145281702547" height="50.88145281702547" width="43.38389968375848" id="textblock"><g><svg viewBox="0 0 43.38389968375848 50.88145281702547" height="50.88145281702547" width="43.38389968375848"><g><svg viewBox="0 0 43.38389968375848 50.88145281702547" height="50.88145281702547" width="43.38389968375848"><g><svg xmlns="http://www.w3.org/2000/svg" xmlns:xlink="http://www.w3.org/1999/xlink" version="1.1" x="0" y="0" viewBox="20.2 15.1 59.599999999999994 69.9" style="enable-background:new 0 0 100 100;" xml:space="preserve" height="50.88145281702547" width="43.38389968375848" class="icon-icon-0" data-fill-palette-color="quaternary" id="icon-0"><g fill="#26517c" data-fill-palette-color="quaternary"><polygon points="30,15.1 27,15.1 27,29.1 20.2,29.1 20.2,39 27,39 27,85 30,85 30,39 36.8,39 36.8,29.1 30,29.1  " fill="#26517c" data-fill-palette-color="quaternary"></polygon><polygon points="51.5,15.1 48.5,15.1 48.5,55.6 41.7,55.6 41.7,65.5 48.5,65.5 48.5,85 51.5,85 51.5,65.5 58.3,65.5 58.3,55.6    51.5,55.6  " fill="#26517c" data-fill-palette-color="quaternary"></polygon><polygon points="79.8,41.7 73,41.7 73,15.1 70,15.1 70,41.7 63.2,41.7 63.2,51.6 70,51.6 70,85 73,85 73,51.6 79.8,51.6  " fill="#26517c" data-fill-palette-color="quaternary"></polygon></g></svg></g></svg></g></svg></g></svg></g></svg></g><g></g></svg></g></svg></g></svg></g><defs></defs></svg><rect width="97.83224064708415" height="97.83224064708415" fill="none" stroke="none" visibility="hidden"></rect></g></svg></g></svg>