<svg width="738" height="737" viewBox="0 0 738 737" fill="none" xmlns="http://www.w3.org/2000/svg">
<path d="M61.2066 290.316C94.0484 296.107 124.897 277.513 129.991 248.627C135.084 219.741 112.455 191.717 79.6133 185.926C46.7716 180.136 15.9225 198.729 10.8291 227.616C5.73572 256.502 28.3648 284.525 61.2066 290.316Z" fill="#787878" stroke="black"/>
<path d="M59.0016 277.695C91.8434 283.486 122.692 264.892 127.786 236.006C132.879 207.12 110.25 179.096 77.4083 173.305C44.5665 167.514 13.7175 186.108 8.6241 214.994C3.5307 243.88 26.1598 271.904 59.0016 277.695Z" fill="#787878" stroke="black"/>
<path d="M362.412 210.937C395.253 216.728 426.102 198.134 431.196 169.248C436.289 140.362 413.66 112.339 380.818 106.548C347.977 100.757 317.128 119.351 312.034 148.237C306.941 177.123 329.57 205.147 362.412 210.937Z" fill="#787878" stroke="black"/>
<path d="M372.207 202.316C405.048 208.107 435.897 189.513 440.991 160.627C446.084 131.741 423.455 103.717 390.613 97.9265C357.772 92.1356 326.922 110.729 321.829 139.616C316.736 168.502 339.365 196.525 372.207 202.316Z" fill="#787878" stroke="black"/>
<path d="M177.412 577.937C210.253 583.728 241.102 565.134 246.196 536.248C251.289 507.362 228.66 479.339 195.818 473.548C162.977 467.757 132.128 486.351 127.034 515.237C121.941 544.123 144.57 572.147 177.412 577.937Z" fill="#787878" stroke="black"/>
<path d="M175.207 565.316C208.048 571.107 238.897 552.513 243.991 523.627C249.084 494.741 226.455 466.717 193.613 460.926C160.771 455.136 129.922 473.729 124.829 502.616C119.736 531.502 142.365 559.525 175.207 565.316Z" fill="#787878" stroke="black"/>
<path d="M467.207 493.316C500.048 499.107 530.897 480.513 535.991 451.627C541.084 422.741 518.455 394.717 485.613 388.926C452.772 383.136 421.922 401.729 416.829 430.616C411.736 459.502 434.365 487.525 467.207 493.316Z" fill="#787878" stroke="black"/>
<path d="M477.207 485.316C510.048 491.107 540.897 472.513 545.991 443.627C551.084 414.741 528.455 386.717 495.613 380.926C462.772 375.136 431.922 393.729 426.829 422.616C421.736 451.502 444.365 479.525 477.207 485.316Z" fill="#787878" stroke="black"/>
<path d="M700.962 553.383C702.278 552.965 703.006 551.559 702.588 550.243L695.776 528.799C695.358 527.483 693.953 526.755 692.637 527.173C691.321 527.591 690.593 528.997 691.011 530.313L697.065 549.374L678.004 555.429C676.688 555.847 675.96 557.252 676.378 558.568C676.796 559.884 678.202 560.612 679.518 560.194L700.962 553.383ZM63.9972 224.337L699.055 553.22L701.355 548.78L66.2965 219.897L63.9972 224.337Z" fill="white"/>
<path d="M81.4616 693.488C81.8449 694.814 83.2309 695.579 84.5574 695.195L106.173 688.949C107.499 688.565 108.264 687.179 107.88 685.853C107.497 684.526 106.111 683.762 104.785 684.145L85.5709 689.698L80.0182 670.484C79.6349 669.158 78.2489 668.393 76.9224 668.776C75.596 669.16 74.8315 670.546 75.2148 671.872L81.4616 693.488ZM381.077 148.792L81.6742 691.586L86.0523 694.001L385.455 151.207L381.077 148.792Z" fill="white"/>
<path d="M96.0439 590.418C94.7148 590.792 93.9406 592.172 94.3146 593.501L100.409 615.16C100.783 616.489 102.164 617.263 103.493 616.889C104.822 616.515 105.596 615.135 105.222 613.806L99.8048 594.553L119.057 589.136C120.386 588.762 121.16 587.381 120.786 586.052C120.412 584.723 119.032 583.949 117.703 584.323L96.0439 590.418ZM87.3928 644.94C87.1713 647.43 87.1722 647.43 87.1737 647.43C87.1748 647.43 87.1767 647.43 87.1789 647.43C87.1833 647.431 87.1895 647.431 87.1976 647.432C87.2137 647.434 87.2371 647.436 87.2675 647.438C87.3285 647.443 87.4178 647.451 87.5341 647.46C87.7668 647.479 88.1077 647.506 88.546 647.539C89.4223 647.604 90.6884 647.69 92.2574 647.778C95.3936 647.952 99.7483 648.131 104.623 648.146C114.282 648.177 126.31 647.573 134.891 644.865C139.129 643.528 143.029 641.527 145.158 638.365C147.478 634.92 147.292 630.77 144.787 626.295C142.347 621.936 137.573 616.949 130.067 611.153C122.519 605.324 112.031 598.543 97.9439 590.644L95.4983 595.005C109.466 602.838 119.727 609.485 127.011 615.11C134.338 620.768 138.478 625.26 140.424 628.737C142.305 632.098 141.975 634.14 141.011 635.573C139.855 637.289 137.328 638.853 133.386 640.097C125.608 642.552 114.263 643.177 104.639 643.146C99.8723 643.131 95.6078 642.956 92.5353 642.785C90.9999 642.7 89.7643 642.615 88.915 642.553C88.4903 642.521 88.1624 642.495 87.942 642.477C87.8318 642.468 87.7485 642.461 87.6935 642.456C87.6659 642.454 87.6455 642.452 87.6322 642.451C87.6256 642.45 87.6208 642.45 87.6178 642.45C87.6164 642.45 87.6155 642.45 87.6147 642.45C87.6144 642.449 87.6144 642.449 87.3928 644.94Z" fill="white"/>
<path d="M661.885 492.839C661.511 491.51 660.131 490.736 658.801 491.11L637.143 497.204C635.814 497.578 635.039 498.959 635.413 500.288C635.787 501.617 637.168 502.391 638.497 502.017L657.749 496.6L663.167 515.852C663.541 517.181 664.922 517.955 666.251 517.581C667.58 517.207 668.354 515.827 667.98 514.498L661.885 492.839ZM607.363 484.188C604.873 483.966 604.873 483.967 604.873 483.969C604.873 483.97 604.872 483.972 604.872 483.974C604.872 483.978 604.871 483.985 604.871 483.993C604.869 484.009 604.867 484.032 604.865 484.063C604.859 484.124 604.852 484.213 604.842 484.329C604.823 484.562 604.796 484.903 604.764 485.341C604.699 486.217 604.612 487.483 604.525 489.052C604.351 492.189 604.172 496.543 604.156 501.418C604.126 511.078 604.73 523.105 607.438 531.686C608.775 535.925 610.775 539.824 613.937 541.953C617.383 544.273 621.533 544.087 626.008 541.582C630.367 539.142 635.354 534.368 641.15 526.862C646.979 519.314 653.76 508.826 661.659 494.739L657.298 492.293C649.465 506.261 642.818 516.522 637.193 523.806C631.535 531.133 627.042 535.273 623.566 537.219C620.205 539.1 618.163 538.77 616.73 537.806C615.014 536.65 613.45 534.123 612.206 530.181C609.751 522.403 609.126 511.058 609.156 501.434C609.172 496.667 609.346 492.403 609.517 489.33C609.603 487.795 609.687 486.559 609.75 485.71C609.782 485.285 609.808 484.957 609.826 484.737C609.835 484.627 609.842 484.544 609.846 484.489C609.849 484.461 609.851 484.441 609.852 484.427C609.852 484.421 609.853 484.416 609.853 484.413C609.853 484.411 609.853 484.411 609.853 484.41C609.853 484.409 609.853 484.409 607.363 484.188Z" fill="white"/>
<path d="M589.745 559.66C591.985 558.9 594.305 558.52 596.705 558.52C599.105 558.52 601.095 559.03 602.675 560.05C604.255 561.07 605.045 562.63 605.045 564.73C605.045 566.83 604.305 568.6 602.825 570.04C601.345 571.46 599.565 572.17 597.485 572.17C595.965 572.17 595.205 571.59 595.205 570.43C595.205 570.07 595.275 569.69 595.415 569.29C595.955 569.43 596.445 569.5 596.885 569.5C598.265 569.5 599.305 569.12 600.005 568.36C600.725 567.6 601.085 566.55 601.085 565.21C601.085 563.85 600.705 562.84 599.945 562.18C599.185 561.52 598.125 561.19 596.765 561.19C596.065 561.19 595.215 561.31 594.215 561.55C594.055 564.01 593.975 566.19 593.975 568.09C593.975 573.41 594.185 577.26 594.605 579.64C593.965 579.88 593.285 580 592.565 580C591.845 580 591.215 579.77 590.675 579.31C590.155 578.85 589.895 578.24 589.895 577.48C589.895 576.72 589.995 575.4 590.195 573.52C590.395 571.62 590.495 570.1 590.495 568.96C590.495 565.48 590.245 562.38 589.745 559.66ZM607.32 565.09C607.96 564.91 608.6 564.82 609.24 564.82C609.9 564.82 610.46 565.02 610.92 565.42C611.38 565.82 611.61 566.34 611.61 566.98C611.61 567.6 611.5 568.69 611.28 570.25C611.08 571.79 610.98 572.99 610.98 573.85C610.98 576.09 611.19 578.02 611.61 579.64C610.99 579.88 610.32 580 609.6 580C608.88 580 608.31 579.84 607.89 579.52C607.47 579.18 607.26 578.7 607.26 578.08C607.26 577.44 607.38 576.4 607.62 574.96C607.86 573.52 607.98 572.33 607.98 571.39C607.98 568.89 607.76 566.79 607.32 565.09ZM607.71 558.31C608.41 557.99 609.1 557.83 609.78 557.83C610.46 557.83 610.96 558.01 611.28 558.37C611.62 558.71 611.79 559.22 611.79 559.9C611.79 560.58 611.56 561.18 611.1 561.7C610.66 562.22 610.08 562.48 609.36 562.48C607.88 562.48 607.14 561.71 607.14 560.17C607.14 559.49 607.33 558.87 607.71 558.31ZM616.016 560.41C616.656 560.09 617.306 559.93 617.966 559.93C618.626 559.93 619.156 560.14 619.556 560.56C619.976 560.98 620.186 561.6 620.186 562.42C620.186 563.24 620.136 564.17 620.036 565.21C621.536 565.21 622.966 565 624.326 564.58C624.566 564.98 624.686 565.45 624.686 565.99C624.686 566.51 624.446 566.94 623.966 567.28C623.506 567.6 623.036 567.76 622.556 567.76C622.076 567.76 621.536 567.7 620.936 567.58C620.336 567.46 619.946 567.39 619.766 567.37C619.746 567.55 619.686 567.91 619.586 568.45C619.506 568.99 619.436 569.46 619.376 569.86C619.216 570.96 619.136 572.14 619.136 573.4C619.136 576.14 620.026 577.51 621.806 577.51C622.466 577.51 623.226 577.28 624.086 576.82C624.346 577.2 624.476 577.69 624.476 578.29C624.476 578.89 624.146 579.36 623.486 579.7C622.846 580.02 622.076 580.18 621.176 580.18C617.656 580.18 615.896 578.18 615.896 574.18C615.896 573.6 615.976 572.55 616.136 571.03C616.316 569.51 616.406 568.28 616.406 567.34C615.446 567.4 614.676 567.57 614.096 567.85C613.856 567.49 613.736 567.08 613.736 566.62C613.736 566.14 613.906 565.75 614.246 565.45C614.586 565.13 615.006 564.97 615.506 564.97C616.006 564.97 616.336 564.98 616.496 565C616.516 564.84 616.526 564.63 616.526 564.37C616.526 562.87 616.356 561.55 616.016 560.41ZM632.652 580.36C630.512 580.36 628.872 579.79 627.732 578.65C626.592 577.51 626.022 575.87 626.022 573.73C626.022 571.13 626.752 568.94 628.212 567.16C629.672 565.36 631.612 564.46 634.032 564.46C635.412 564.46 636.532 564.74 637.392 565.3C638.252 565.84 638.682 566.65 638.682 567.73C638.682 568.43 638.402 569.06 637.842 569.62C637.282 570.16 636.652 570.43 635.952 570.43C635.792 570.43 635.592 570.41 635.352 570.37C635.412 570.11 635.442 569.88 635.442 569.68C635.442 568.96 635.252 568.35 634.872 567.85C634.492 567.35 633.862 567.1 632.982 567.1C632.102 567.1 631.282 567.46 630.522 568.18C629.982 569.58 629.712 571.33 629.712 573.43C629.712 576.29 630.792 577.72 632.952 577.72C634.112 577.72 634.972 577.35 635.532 576.61C636.112 575.85 636.402 575 636.402 574.06C637.082 574.06 637.672 574.23 638.172 574.57C638.672 574.91 638.922 575.38 638.922 575.98C638.922 577.28 638.252 578.34 636.912 579.16C635.592 579.96 634.172 580.36 632.652 580.36ZM655.425 567.88L655.125 574.48C655.125 576.24 655.415 578.02 655.995 579.82C655.375 580.06 654.745 580.18 654.105 580.18C652.365 580.18 651.495 579.26 651.495 577.42C651.495 576.06 651.615 574.46 651.855 572.62C652.095 570.78 652.215 569.65 652.215 569.23C652.215 568.19 651.745 567.67 650.805 567.67C649.805 567.67 648.695 568.61 647.475 570.49C646.255 572.35 645.555 573.91 645.375 575.17C645.415 575.75 645.615 577.24 645.975 579.64C645.355 579.88 644.675 580 643.935 580C642.395 580 641.625 579.25 641.625 577.75C641.625 577.03 641.735 575.62 641.955 573.52C642.175 571.4 642.285 569.7 642.285 568.42C642.285 564.16 642.045 560.64 641.565 557.86C642.205 557.62 642.865 557.5 643.545 557.5C644.225 557.5 644.785 557.73 645.225 558.19C645.685 558.63 645.915 559.24 645.915 560.02C645.915 560.8 645.805 562.41 645.585 564.85C645.385 567.29 645.285 569.19 645.285 570.55C645.985 569.07 647.005 567.72 648.345 566.5C649.705 565.26 651.055 564.64 652.395 564.64C654.415 564.64 655.425 565.72 655.425 567.88Z" fill="white"/>
<path d="M736.923 572.08C736.923 572.64 736.693 573.13 736.233 573.55C735.793 573.97 735.243 574.18 734.583 574.18C733.943 574.18 733.323 573.98 732.723 573.58C732.123 573.18 731.603 572.73 731.163 572.23C730.743 571.73 730.283 571.02 729.783 570.1C729.023 568.72 728.263 567.15 727.503 565.39C724.923 568.49 723.513 571.36 723.273 574C720.753 574 719.493 573.17 719.493 571.51C719.493 570.95 719.753 570.32 720.273 569.62C720.813 568.9 721.753 567.82 723.093 566.38C724.453 564.94 725.533 563.75 726.333 562.81C724.013 557.71 721.743 555.16 719.523 555.16C719.523 554.4 719.743 553.8 720.183 553.36C720.623 552.92 721.223 552.7 721.983 552.7C723.323 552.7 724.583 553.39 725.763 554.77C726.963 556.15 728.013 557.94 728.913 560.14C731.033 557.8 732.193 555.26 732.393 552.52C734.913 552.52 736.173 553.29 736.173 554.83C736.173 555.39 735.903 556.02 735.363 556.72C734.823 557.4 733.973 558.33 732.813 559.51C731.653 560.69 730.713 561.71 729.993 562.57C730.613 564.03 731.023 564.96 731.223 565.36C731.443 565.76 731.713 566.3 732.033 566.98C732.373 567.64 732.663 568.13 732.903 568.45C733.143 568.75 733.423 569.1 733.743 569.5C734.063 569.9 734.383 570.19 734.703 570.37C735.023 570.53 735.343 570.61 735.663 570.61C735.983 570.61 736.283 570.55 736.563 570.43C736.803 570.97 736.923 571.52 736.923 572.08Z" fill="white"/>
<path d="M316.3 492.06C316.94 491.82 317.63 491.7 318.37 491.7C320.15 491.7 321.04 492.51 321.04 494.13C321.04 495.01 320.94 496.46 320.74 498.48C320.54 500.48 320.44 502.56 320.44 504.72C320.44 506.88 320.51 508.67 320.65 510.09C321.19 510.15 321.73 510.18 322.27 510.18C324.91 510.18 327.23 509.74 329.23 508.86C329.47 509.4 329.59 510.01 329.59 510.69C329.59 511.37 329.35 511.96 328.87 512.46C328.41 512.94 327.84 513.18 327.16 513.18C325.74 513.18 322.63 513.06 317.83 512.82C317.45 512.8 317.12 512.69 316.84 512.49C316.56 512.27 316.42 512 316.42 511.68C316.42 510.62 316.5 508.83 316.66 506.31C316.84 503.79 316.93 501.47 316.93 499.35C316.93 497.21 316.72 494.78 316.3 492.06Z" fill="white"/>
<path d="M478.419 300.4C478.419 304.26 478.629 307.34 479.049 309.64C478.409 309.88 477.729 310 477.009 310C476.289 310 475.659 309.77 475.119 309.31C474.599 308.85 474.339 308.22 474.339 307.42C474.339 306.6 474.439 305.06 474.639 302.8C474.839 300.54 474.939 298.79 474.939 297.55C474.939 294.49 474.729 291.54 474.309 288.7C475.789 288.82 477.779 288.88 480.279 288.88C482.779 288.88 485.169 288.7 487.449 288.34C487.689 288.78 487.809 289.31 487.809 289.93C487.809 290.53 487.569 291.07 487.089 291.55C486.629 292.01 486.049 292.24 485.349 292.24C484.669 292.24 483.569 292.14 482.049 291.94C480.549 291.74 479.439 291.64 478.719 291.64C478.559 293.82 478.459 295.82 478.419 297.64C479.579 297.76 480.859 297.82 482.259 297.82C483.679 297.82 484.909 297.61 485.949 297.19C486.189 297.63 486.309 298.16 486.309 298.78C486.309 299.38 486.069 299.93 485.589 300.43C485.129 300.91 484.579 301.15 483.939 301.15C483.299 301.15 482.379 301.03 481.179 300.79C479.979 300.53 479.059 300.4 478.419 300.4ZM491.39 305.11C491.39 304.75 491.3 302.41 491.12 298.09C490.14 298.15 489.36 298.32 488.78 298.6C488.54 298.16 488.42 297.7 488.42 297.22C488.42 296.74 488.59 296.35 488.93 296.05C489.27 295.73 489.67 295.57 490.13 295.57C490.59 295.57 490.92 295.58 491.12 295.6C491.22 293.34 491.99 291.43 493.43 289.87C494.87 288.29 496.68 287.5 498.86 287.5C500.08 287.5 501.11 287.76 501.95 288.28C502.79 288.8 503.21 289.57 503.21 290.59C503.21 291.31 502.94 291.92 502.4 292.42C501.86 292.92 501.22 293.17 500.48 293.17C500.32 293.17 500.12 293.15 499.88 293.11C499.94 292.85 499.97 292.62 499.97 292.42C499.97 291.72 499.82 291.16 499.52 290.74C499.22 290.3 498.69 290.08 497.93 290.08C497.17 290.08 496.47 290.3 495.83 290.74C495.43 291.28 495.11 292.03 494.87 292.99C494.63 293.95 494.51 294.89 494.51 295.81H495.2C496.52 295.81 498.09 295.6 499.91 295.18C500.15 295.58 500.27 296.06 500.27 296.62C500.27 297.16 500.04 297.61 499.58 297.97C499.12 298.33 498.54 298.51 497.84 298.51C497.82 298.51 496.69 298.37 494.45 298.09L494.75 313.69C494.75 314.99 493.98 315.64 492.44 315.64C491.92 315.64 491.24 315.52 490.4 315.28C491.06 312.66 491.39 309.27 491.39 305.11Z" fill="white"/>
<path d="M63.2673 79.4C63.2673 83.26 63.4773 86.34 63.8973 88.64C63.2573 88.88 62.5773 89 61.8573 89C61.1373 89 60.5073 88.77 59.9673 88.31C59.4473 87.85 59.1873 87.22 59.1873 86.42C59.1873 85.6 59.2873 84.06 59.4873 81.8C59.6873 79.54 59.7873 77.79 59.7873 76.55C59.7873 73.49 59.5773 70.54 59.1573 67.7C60.6373 67.82 62.6273 67.88 65.1273 67.88C67.6273 67.88 70.0173 67.7 72.2973 67.34C72.5373 67.78 72.6573 68.31 72.6573 68.93C72.6573 69.53 72.4173 70.07 71.9373 70.55C71.4773 71.01 70.8973 71.24 70.1973 71.24C69.5173 71.24 68.4173 71.14 66.8973 70.94C65.3973 70.74 64.2873 70.64 63.5673 70.64C63.4073 72.82 63.3073 74.82 63.2673 76.64C64.4273 76.76 65.7073 76.82 67.1073 76.82C68.5273 76.82 69.7573 76.61 70.7973 76.19C71.0373 76.63 71.1573 77.16 71.1573 77.78C71.1573 78.38 70.9173 78.93 70.4373 79.43C69.9773 79.91 69.4273 80.15 68.7873 80.15C68.1473 80.15 67.2273 80.03 66.0273 79.79C64.8273 79.53 63.9073 79.4 63.2673 79.4ZM74.679 87.95C75.139 83.97 75.369 81.23 75.369 79.73C75.369 75.53 75.199 71.24 74.859 66.86C75.459 66.62 76.099 66.5 76.779 66.5C77.459 66.5 78.039 66.73 78.519 67.19C78.999 67.65 79.239 68.23 79.239 68.93C79.239 70.13 79.119 72.05 78.879 74.69C78.639 77.31 78.489 79.06 78.429 79.94C80.069 76.86 81.699 74.94 83.319 74.18C84.039 73.82 84.809 73.64 85.629 73.64C86.749 73.64 87.609 74.23 88.209 75.41C88.829 76.59 89.139 78.03 89.139 79.73C89.139 82.45 88.399 84.71 86.919 86.51C85.439 88.29 83.519 89.18 81.159 89.18C78.819 89.18 76.659 88.77 74.679 87.95ZM78.279 86.06C79.079 86.36 80.029 86.51 81.129 86.51C82.229 86.51 83.179 86.3 83.979 85.88C84.959 84.2 85.449 82.37 85.449 80.39C85.449 79.45 85.339 78.54 85.119 77.66C84.899 76.76 84.549 76.31 84.069 76.31C83.329 76.31 82.359 77.33 81.159 79.37C79.959 81.41 78.999 83.64 78.279 86.06Z" fill="white"/>
<path d="M383.206 19.4C383.206 23.26 383.416 26.34 383.836 28.64C383.196 28.88 382.516 29 381.796 29C381.076 29 380.446 28.77 379.906 28.31C379.386 27.85 379.126 27.22 379.126 26.42C379.126 25.6 379.226 24.06 379.426 21.8C379.626 19.54 379.726 17.79 379.726 16.55C379.726 13.49 379.516 10.54 379.096 7.7C380.576 7.82 382.566 7.88 385.066 7.88C387.566 7.88 389.956 7.7 392.236 7.34C392.476 7.78 392.596 8.31 392.596 8.93C392.596 9.53 392.356 10.07 391.876 10.55C391.416 11.01 390.836 11.24 390.136 11.24C389.456 11.24 388.356 11.14 386.836 10.94C385.336 10.74 384.226 10.64 383.506 10.64C383.346 12.82 383.246 14.82 383.206 16.64C384.366 16.76 385.646 16.82 387.046 16.82C388.466 16.82 389.696 16.61 390.736 16.19C390.976 16.63 391.096 17.16 391.096 17.78C391.096 18.38 390.856 18.93 390.376 19.43C389.916 19.91 389.366 20.15 388.726 20.15C388.086 20.15 387.166 20.03 385.966 19.79C384.766 19.53 383.846 19.4 383.206 19.4ZM394.948 6.86C395.588 6.62 396.248 6.5 396.928 6.5C397.608 6.5 398.168 6.73 398.608 7.19C399.068 7.63 399.298 8.24 399.298 9.02C399.298 9.78 399.188 11.32 398.968 13.64C398.768 15.94 398.668 17.75 398.668 19.07C398.668 22.33 398.898 25.52 399.358 28.64C398.718 28.88 398.038 29 397.318 29C395.778 29 395.008 28.25 395.008 26.75C395.008 26.03 395.118 24.62 395.338 22.52C395.558 20.4 395.668 18.7 395.668 17.42C395.668 13.16 395.428 9.64 394.948 6.86Z" fill="white"/>
<path d="M173.379 377.4C173.379 381.26 173.589 384.34 174.009 386.64C173.369 386.88 172.689 387 171.969 387C171.249 387 170.619 386.77 170.079 386.31C169.559 385.85 169.299 385.22 169.299 384.42C169.299 383.6 169.399 382.06 169.599 379.8C169.799 377.54 169.899 375.79 169.899 374.55C169.899 371.49 169.689 368.54 169.269 365.7C170.749 365.82 172.739 365.88 175.239 365.88C177.739 365.88 180.129 365.7 182.409 365.34C182.649 365.78 182.769 366.31 182.769 366.93C182.769 367.53 182.529 368.07 182.049 368.55C181.589 369.01 181.009 369.24 180.309 369.24C179.629 369.24 178.529 369.14 177.009 368.94C175.509 368.74 174.399 368.64 173.679 368.64C173.519 370.82 173.419 372.82 173.379 374.64C174.539 374.76 175.819 374.82 177.219 374.82C178.639 374.82 179.869 374.61 180.909 374.19C181.149 374.63 181.269 375.16 181.269 375.78C181.269 376.38 181.029 376.93 180.549 377.43C180.089 377.91 179.539 378.15 178.899 378.15C178.259 378.15 177.339 378.03 176.139 377.79C174.939 377.53 174.019 377.4 173.379 377.4ZM189.2 386.64C188.58 386.88 187.92 387 187.22 387C186.52 387 185.95 386.84 185.51 386.52C185.09 386.18 184.88 385.72 184.88 385.14C184.88 384.54 184.97 383.46 185.15 381.9C185.33 380.34 185.42 378.83 185.42 377.37C185.42 375.89 185.19 374.16 184.73 372.18C185.37 371.94 186 371.82 186.62 371.82C187.24 371.82 187.77 372.03 188.21 372.45C188.67 372.87 188.9 373.43 188.9 374.13C188.9 374.49 188.84 375.03 188.72 375.75C188.6 376.45 188.53 376.98 188.51 377.34C189.29 375.56 190.21 374.17 191.27 373.17C192.35 372.15 193.42 371.64 194.48 371.64C195.22 371.64 195.81 371.9 196.25 372.42C196.69 372.94 196.91 373.6 196.91 374.4C196.91 375.18 196.71 375.82 196.31 376.32C195.91 376.8 195.41 377.04 194.81 377.04C194.23 377.04 193.76 376.98 193.4 376.86C193.46 376.62 193.49 376.4 193.49 376.2C193.49 375.38 193.2 374.97 192.62 374.97C191.74 374.97 190.91 375.86 190.13 377.64C189.37 379.4 188.86 381.05 188.6 382.59C188.7 384.09 188.9 385.44 189.2 386.64Z" fill="white"/>
<path d="M67.6391 709.26C68.1191 708.22 68.9991 707.7 70.2791 707.7C72.6591 707.7 74.9091 711.12 77.0291 717.96C78.2691 716.1 79.3291 714.21 80.2091 712.29C81.1091 710.35 81.5591 708.76 81.5591 707.52C83.6791 707.52 84.7391 708.08 84.7391 709.2C84.7391 709.98 84.2591 711.14 83.2991 712.68C82.3391 714.22 81.2991 715.81 80.1791 717.45C79.0791 719.07 78.4291 720.26 78.2291 721.02C78.1691 721.8 78.1391 722.76 78.1391 723.9C78.1391 725.04 78.2791 726.62 78.5591 728.64C77.9191 728.88 77.2391 729 76.5191 729C75.7991 729 75.1691 728.77 74.6291 728.31C74.1091 727.85 73.8491 727.27 73.8491 726.57C73.8491 725.85 73.9691 724.03 74.2091 721.11C72.6691 715.11 70.4791 711.16 67.6391 709.26Z" fill="white"/>
<path d="M149.673 658.8C150.573 660.7 151.713 662.36 153.093 663.78C154.473 665.2 155.843 666.12 157.203 666.54C157.203 667.38 156.983 668.03 156.543 668.49C156.103 668.95 155.473 669.18 154.653 669.18C153.593 669.18 152.383 668.5 151.023 667.14C149.663 665.76 148.473 664.14 147.453 662.28C146.453 660.4 145.863 658.75 145.683 657.33C147.123 657.33 148.303 656.95 149.223 656.19C150.163 655.41 150.633 654.31 150.633 652.89C150.633 651.09 149.513 650.19 147.273 650.19C146.553 650.19 145.673 650.31 144.633 650.55C144.493 653.25 144.423 655.43 144.423 657.09C144.423 662.41 144.633 666.26 145.053 668.64C144.413 668.88 143.733 669 143.013 669C142.293 669 141.663 668.77 141.123 668.31C140.603 667.85 140.343 667.24 140.343 666.48C140.343 665.72 140.443 664.4 140.643 662.52C140.843 660.62 140.943 659.1 140.943 657.96C140.943 654.46 140.693 651.35 140.193 648.63C142.893 647.89 145.463 647.52 147.903 647.52C152.363 647.52 154.593 649.11 154.593 652.29C154.593 653.69 154.113 655.01 153.153 656.25C152.213 657.47 151.053 658.32 149.673 658.8ZM164.514 669.36C162.314 669.36 160.694 668.72 159.654 667.44C158.614 666.14 158.094 664.34 158.094 662.04C158.094 659.72 158.784 657.71 160.164 656.01C161.544 654.31 163.314 653.46 165.474 653.46C169.914 653.46 172.134 655.96 172.134 660.96C172.134 663.3 171.414 665.29 169.974 666.93C168.534 668.55 166.714 669.36 164.514 669.36ZM162.354 656.76C161.994 657.92 161.814 659.08 161.814 660.24C161.814 661.4 161.854 662.3 161.934 662.94C162.014 663.58 162.164 664.22 162.384 664.86C162.844 666.16 163.744 666.81 165.084 666.81C166.444 666.81 167.334 666.45 167.754 665.73C168.194 665.01 168.414 663.9 168.414 662.4C168.414 658.14 167.404 656.01 165.384 656.01C164.224 656.01 163.214 656.26 162.354 656.76ZM174.823 646.86C175.463 646.62 176.123 646.5 176.803 646.5C177.483 646.5 178.043 646.73 178.483 647.19C178.943 647.63 179.173 648.24 179.173 649.02C179.173 649.78 179.063 651.32 178.843 653.64C178.643 655.94 178.543 657.75 178.543 659.07C178.543 662.33 178.773 665.52 179.233 668.64C178.593 668.88 177.913 669 177.193 669C175.653 669 174.883 668.25 174.883 666.75C174.883 666.03 174.993 664.62 175.213 662.52C175.433 660.4 175.543 658.7 175.543 657.42C175.543 653.16 175.303 649.64 174.823 646.86ZM182.88 646.86C183.52 646.62 184.18 646.5 184.86 646.5C185.54 646.5 186.1 646.73 186.54 647.19C187 647.63 187.23 648.24 187.23 649.02C187.23 649.78 187.12 651.32 186.9 653.64C186.7 655.94 186.6 657.75 186.6 659.07C186.6 662.33 186.83 665.52 187.29 668.64C186.65 668.88 185.97 669 185.25 669C183.71 669 182.94 668.25 182.94 666.75C182.94 666.03 183.05 664.62 183.27 662.52C183.49 660.4 183.6 658.7 183.6 657.42C183.6 653.16 183.36 649.64 182.88 646.86Z" fill="white"/>
<path d="M240.902 429.047C240.376 429.214 240.085 429.776 240.252 430.303L242.976 438.88C243.143 439.407 243.706 439.698 244.232 439.531C244.758 439.364 245.05 438.801 244.882 438.275L242.461 430.65L250.085 428.229C250.612 428.062 250.903 427.499 250.736 426.973C250.569 426.447 250.006 426.155 249.48 426.323L240.902 429.047ZM427.205 527.127C427.731 526.96 428.023 526.398 427.855 525.871L425.131 517.294C424.964 516.767 424.402 516.476 423.875 516.643C423.349 516.811 423.058 517.373 423.225 517.899L425.647 525.524L418.022 527.945C417.496 528.113 417.204 528.675 417.372 529.201C417.539 529.728 418.101 530.019 418.627 529.852L427.205 527.127ZM240.745 430.888L426.443 527.062L427.362 525.286L241.665 429.112L240.745 430.888Z" fill="white"/>
<line x1="482.651" y1="436.225" x2="427.651" y2="545.225" stroke="white"/>
<path d="M486.705 319.017L480.593 328.814L492.133 329.209L486.705 319.017ZM485.398 327.978L481.705 435.983L483.704 436.051L487.397 328.046L485.398 327.978Z" fill="white"/>
<path d="M386.205 38L380.093 47.7969L391.633 48.1914L386.205 38ZM384.898 46.9606L381.206 154.966L383.204 155.034L386.897 47.0289L384.898 46.9606Z" fill="white"/>
<path d="M70.205 104L64.0931 113.797L75.6334 114.191L70.205 104ZM68.898 112.961L65.2055 220.966L67.2044 221.034L70.8969 113.029L68.898 112.961Z" fill="white"/>
<path d="M184.205 396L178.093 405.797L189.633 406.191L184.205 396ZM182.898 404.961L179.206 512.966L181.204 513.034L184.897 405.029L182.898 404.961Z" fill="white"/>
</svg>
